<svg width="36" height="36" viewBox="0 0 36 36" fill="none" xmlns="http://www.w3.org/2000/svg">
<path d="M25.7228 12.7772C25.8507 12.9049 25.9521 13.0565 26.0213 13.2235C26.0905 13.3904 26.1261 13.5693 26.1261 13.75C26.1261 13.9307 26.0905 14.1096 26.0213 14.2765C25.9521 14.4435 25.8507 14.5951 25.7228 14.7228L16.0978 24.3478C15.9701 24.4757 15.8185 24.5771 15.6516 24.6463C15.4846 24.7155 15.3057 24.7511 15.125 24.7511C14.9443 24.7511 14.7654 24.7155 14.5985 24.6463C14.4315 24.5771 14.2799 24.4757 14.1522 24.3478L10.0272 20.2228C9.76919 19.9648 9.62424 19.6149 9.62424 19.25C9.62424 18.8851 9.76919 18.5352 10.0272 18.2772C10.2852 18.0192 10.6351 17.8742 11 17.8742C11.3649 17.8742 11.7148 18.0192 11.9728 18.2772L15.125 21.4311L23.7772 12.7772C23.9049 12.6493 24.0565 12.5479 24.2235 12.4787C24.3904 12.4095 24.5693 12.3739 24.75 12.3739C24.9307 12.3739 25.1096 12.4095 25.2766 12.4787C25.4435 12.5479 25.5951 12.6493 25.7228 12.7772ZM35.75 17.875C35.75 21.4103 34.7017 24.8663 32.7375 27.8058C30.7734 30.7453 27.9817 33.0364 24.7155 34.3893C21.4492 35.7423 17.8552 36.0962 14.3878 35.4065C10.9204 34.7168 7.73534 33.0144 5.23547 30.5145C2.73561 28.0147 1.03318 24.8297 0.343471 21.3622C-0.34624 17.8948 0.00774496 14.3008 1.36066 11.0345C2.71358 7.7683 5.00466 4.97661 7.94419 3.01248C10.8837 1.04835 14.3397 0 17.875 0C22.6142 0.00500469 27.1579 1.88987 30.509 5.24099C33.8601 8.59212 35.745 13.1358 35.75 17.875ZM33 17.875C33 14.8836 32.1129 11.9593 30.451 9.472C28.789 6.98471 26.4268 5.0461 23.6631 3.90132C20.8994 2.75655 17.8582 2.45702 14.9243 3.04062C11.9903 3.62422 9.29529 5.06474 7.18002 7.18001C5.06475 9.29528 3.62423 11.9903 3.04063 14.9243C2.45703 17.8582 2.75655 20.8994 3.90133 23.6631C5.04611 26.4268 6.98471 28.789 9.47201 30.451C11.9593 32.1129 14.8836 33 17.875 33C21.885 32.9955 25.7295 31.4005 28.565 28.565C31.4005 25.7295 32.9955 21.885 33 17.875Z" fill="#40BB71"/>
</svg>
